<svg xmlns="http://www.w3.org/2000/svg" viewBox="0 0 122.14 180.703"><g data-name="Layer 2"><g data-name="ART"><path fill="#abb833" d="M29.866 167.802l-6.714-14.655-5.449 12.439 12.163 2.216zM37.952 168.692l2.09 4.347 14.387-1.524c-4.307-3.05-9.142-5.88-10.305-6.553a58.381 58.381 0 01-6.172 3.73zM100.452 155.373a21.493 21.493 0 00-11.641.439 94.025 94.025 0 0013.657 5.819.499.499 0 01.115.9l-9.044 5.619 12.599-1.308z"/><path d="M103.053 145.176c-7.803 1.559-15.892 6.88-18.168 8.46.916.54 1.827 1.053 2.727 1.54a22.577 22.577 0 0116.911.476zM65.072 169.737l3.243-3.654-10.716-9.18c-3.19.992-7.045 3.647-10.812 6.241q-.87.599-1.744 1.197c2.532 1.473 11.241 6.663 15.341 10.677zM76.335 82.279l7.494-24.223c-2.34.416-9.557 2.084-14.848 7.459a59.986 59.986 0 01-.504 16.915c2.704-.034 5.328-.086 7.858-.151z" fill="#b5c933"/><path d="M109.183 143.873c-.344-1.735-1.34-6.267-2.679-8.06a.497.497 0 01-.084-.178c-7.398.69-22.03 1.858-38.526 2.128 3.42 6.343 9.742 11.463 16.055 15.31a68.3 68.3 0 018.677-5.187c6.538-3.259 12.102-4.609 16.557-4.013z" fill="#b5c933"/><path d="M80.412 175.13l20.743-12.886a98.548 98.548 0 01-13.706-6.032.49.49 0 01-.27-.146 83.589 83.589 0 01-3.35-1.912.48.48 0 01-.24-.144c-6.639-4.028-13.326-9.454-16.807-16.23q-2.826.039-5.712.04-2.667 0-5.288-.034l6.356 18.337a.5.5 0 01-.645.631 5.14 5.14 0 00-2.703-.144l20.103 17.219z" fill="#b5c933"/><path d="M46.221 162.322c5.51-3.794 10.733-7.394 14.669-6.753l-6.169-17.798c-9.694-.149-18.754-.61-26.105-1.108a18.636 18.636 0 01-9.916 4.368l13.08 28.554c4.152-.178 9.38-3.778 14.441-7.263zM22.017 54.318l-8.345 26.263c5.477.46 18.365 1.41 34.89 1.762-.147-2.085-.95-9.889-4.823-14.038a.499.499 0 01-.032-.642l1.567-2.064c-1.933-.64-4.188-2.228-6.753-4.037-4.588-3.236-10.272-7.244-16.405-7.244z" fill="#b5c933"/><path d="M49.567 82.364c3.675.072 7.523.114 11.503.114q3.259 0 6.394-.036a57.815 57.815 0 00-1.59-27.03 44.547 44.547 0 00-4.244-9.695l-16.879 22.22c3.955 4.56 4.69 12.413 4.816 14.427zM101.235 68.052c-.006-.003-.01-.01-.015-.013a38.568 38.568 0 01-3.239-2.28 48.06 48.06 0 01-6.456-6.116l-7.788 22.4c9.59-.362 17.32-.877 22.149-1.25l7.276-8.801a22.909 22.909 0 01-11.91-3.934c-.006-.003-.012-.003-.017-.006z" fill="#b5c933"/><path d="M85.02 57.581v.002L77.388 82.25q2.718-.075 5.278-.168l8.205-23.597a.499.499 0 01.86-.147 46.077 46.077 0 009.606 8.577l6.194-10.273a53.255 53.255 0 01-9.045-3.327.172.172 0 01-.12-.058 38.524 38.524 0 01-9.95-6.651z" fill="#b5c933"/><path d="M61.07 14.24c35.342 0 54.889-3.737 54.889-6.32 0-2.584-19.547-6.321-54.89-6.321S6.182 5.336 6.182 7.919c0 2.584 19.546 6.32 54.889 6.32z" fill="#e6e7e8"/><path fill="#94a727" d="M69.074 166.732l-2.739 3.085 10.05 3.178-7.311-6.263z"/><path d="M119.655 56.321c0-9.161-3.37-15.015-6.197-18.313a21.46 21.46 0 00-5.703-4.76c-.612.966-3.165 2.501-13.828 3.814a283.674 283.674 0 01-32.857 1.676 283.679 283.679 0 01-32.858-1.676c-10.662-1.313-13.215-2.848-13.827-3.814a21.465 21.465 0 00-5.703 4.76c-2.827 3.298-6.197 9.152-6.197 18.313 0 3.342-.123 9.161-.279 16.529-.628 29.721-1.914 90.675 3.354 98.984 1.435-1.78 7.013-3.26 16.644-4.413l-5.301-.966a.499.499 0 01-.368-.691l6.06-13.833-5.15-11.241a.625.625 0 01-.113-.329c-.001-.012-.005-.023-.006-.035v-.008c0-.743 1.406-2.912 2.386-4.333-5.563-.472-8.927-.853-9.015-.863a.499.499 0 01-.438-.427c-.922-6.668-1.098-45.47 0-53.938a.493.493 0 01.544-.432c.037.003.678.066 1.85.169l8.521-26.819a.5.5 0 01.46-.347c4.087-.13 7.936 1.428 11.417 3.437l2.643-4.361a.5.5 0 01.532-.23c2.685.582 4.8 2.404 6.843 4.167 2.072 1.785 4.033 3.47 6.402 3.733l11.798-15.531a.5.5 0 01.808.017c.072.105 5.075 7.494 6.745 19.71a29.76 29.76 0 0115.338-7.282l3.545-11.46a.495.495 0 01.06-.125c.006-.009.013-.015.02-.023a.494.494 0 01.103-.102c.01-.008.02-.016.032-.023a.492.492 0 01.143-.064h.011c.01-.003.018-.002.027-.004a.497.497 0 01.155 0c.008.001.016-.002.024 0 3.636.727 9.507 3.932 11.195 4.882l1.733-3.452a.499.499 0 01.74-.18c3.726 2.71 6.692 9.4 6.817 9.684v.002l.001.001.003.015a.49.49 0 01.034.199.481.481 0 01-.012.063.488.488 0 01-.045.144c-.006.01-.004.023-.01.034l-1.204 1.996a25.998 25.998 0 017.21 12.792v.002l.001.007v.013a.495.495 0 01-.006.162.475.475 0 01-.013.049.49.49 0 01-.054.118c-.008.013-.014.027-.024.04l-.01.017-7.365 8.91c2.625-.21 4.092-.355 4.148-.36a.502.502 0 01.543.427c1.135 8.134 1.386 49.6-.018 54.026a.499.499 0 01-.42.344c-.057.007-1.492.169-4.005.41 1.681 2.618 2.732 8.595 2.778 8.86a.499.499 0 01-.141.44.506.506 0 01-.442.135 16.88 16.88 0 00-5.678.034l1.605 11.441a.499.499 0 01-.735.506 17.901 17.901 0 00-3.172-1.235l5.617 11.33a.5.5 0 01-.395.717l-2.57.267c8.781 1.34 11.428 2.77 12.225 3.762 5.233-8.496 3.95-69.275 3.323-98.939-.156-7.368-.279-13.187-.279-16.529z" fill="#f0f6fc"/><path d="M27.203 136.565a527.438 527.438 0 01-6.34-.484 29.932 29.932 0 00-2.462 3.982 17.535 17.535 0 008.802-3.498z" fill="#94a727"/><path d="M101.827 47.61l-2.51 4.996a52.522 52.522 0 008.087 2.97c-.9-1.828-3.064-5.859-5.577-7.967z" fill="#abb833"/><path d="M11.2 134.174c1.09.119 4.412.468 9.298.875a.486.486 0 01.377.031c2.214.183 4.733.377 7.504.566a.491.491 0 01.246.016c8.926.606 20.385 1.16 32.445 1.16 24.718 0 47.008-2.328 50.002-2.654 1.158-5.305 1.138-43.112-.037-52.804-.766.07-2.432.22-4.842.407l-.028.002c-4.942.383-13.033.925-23.114 1.294-.009 0-.017.004-.026.004l-.016-.003q-3.029.111-6.286.198l-.018.003-.014-.002c-2.822.074-5.76.132-8.798.168h-.008q-3.334.04-6.815.041c-26.093 0-46.509-1.797-49.879-2.112-1.01 9.146-.85 45.332.009 52.81z" fill="#85c3e9"/><path d="M36.358 53.233l-2.45 4.041c1.846 1.12 3.584 2.341 5.189 3.473 2.663 1.878 4.98 3.51 6.822 4.004l2.866-3.774c-2.417-.48-4.422-2.204-6.367-3.88-1.858-1.602-3.775-3.255-6.06-3.864z" fill="#abb833"/><path d="M100.208 168.461l-8.61.894-10.97 6.815a.5.5 0 01-.588-.044l-1.719-1.473-12.71-4.019-4.833 5.444a.5.5 0 01-.363.168h-.01a.5.5 0 01-.36-.153 36.299 36.299 0 00-4.404-3.703l-15.843 1.678a.484.484 0 01-.053.003.5.5 0 01-.45-.283l-2.243-4.665a13.783 13.783 0 01-5.589 1.467.499.499 0 01-.454-.291l-.636-1.39-4.743-.864c-15.35 1.578-19.449 3.72-19.449 4.739 0 2.583 19.546 6.32 54.889 6.32s54.889-3.737 54.889-6.32c0-.244-.444-2.435-15.751-4.323z" fill="#dee4eb"/><path d="M115.959 25.17V9.5c-1.55 1.086-5.51 2.487-15.663 3.737a338.698 338.698 0 01-39.226 2 338.704 338.704 0 01-39.226-2C11.69 11.987 7.73 10.587 6.18 9.5v15.67c0 2.583 19.546 6.32 54.889 6.32s54.889-3.737 54.889-6.32z" fill="#4495d7"/><path d="M99.027 50.962A64.124 64.124 0 0090 46.705a38.332 38.332 0 008.416 5.472zM107 59.457l-4.819 7.992a21.224 21.224 0 0011.454 3.53A26.195 26.195 0 00107 59.456z" fill="#94a727"/><path d="M21.844 30.488c-2.605-.321-4.803-.652-6.657-.985v3.026c0 .078.15 1.942 13.147 3.542a282.681 282.681 0 0032.736 1.67 282.678 282.678 0 0032.735-1.67c12.998-1.6 13.147-3.464 13.147-3.542v-3.026a123.17 123.17 0 01-6.656.985 338.713 338.713 0 01-39.226 2 338.706 338.706 0 01-39.226-2z" fill="#dee4eb"/><path d="M22.64 113.523c-.07-.421-.163-1.17.281-1.569l.07-.046h.07c.048 0 .118-.024.165-.024a.817.817 0 01.819.538 2.508 2.508 0 01.094.843 1.437 1.437 0 00.023.351v.024a3.52 3.52 0 00.89 1.615 4.85 4.85 0 002.692.539h.093a4.428 4.428 0 004.19-2.53 3.766 3.766 0 00-.772-4.143 6.493 6.493 0 00-3.324-1.287 6.896 6.896 0 01-3.09-1.17 4.662 4.662 0 01-1.287-3.441 4.323 4.323 0 011.568-3.044 4.884 4.884 0 015.642-.539c.374.211 1.544.867 1.217 1.78l-.07.187-.188-.047a4.32 4.32 0 01-1.615-.679 2.71 2.71 0 00-1.569-.562 3.849 3.849 0 00-.819.117 3.12 3.12 0 00-1.732 1.265 4.263 4.263 0 00-.843 2.153 2.193 2.193 0 001.429 2.342 5.049 5.049 0 001.544.304 5.993 5.993 0 01.937.117 6.428 6.428 0 014.494 3.51 4.908 4.908 0 01-.375 4.66 4.626 4.626 0 01-2.34 1.802 8.704 8.704 0 01-3.301.632 5.908 5.908 0 01-3.16-.796 4.931 4.931 0 01-1.733-2.902zM34.744 116.543a1.71 1.71 0 010-1.358 2.429 2.429 0 00.07-.28v-.048c.68-2.809 1.475-5.665 2.247-8.428.633-2.2 1.265-4.47 1.803-6.648l.023-.094.095-.07a1.129 1.129 0 01.514-.14c.328 0 .562.187.702.608a4.495 4.495 0 01.211 1.007 1.805 1.805 0 00.047.374c.421 1.358.843 2.716 1.218 4.027.702 2.387 1.38 4.612 2.13 6.672l.023.024v.023a5.747 5.747 0 00.725 1.849 4.85 4.85 0 01.586 2.224v.094l-.07.07a.895.895 0 01-.585.304c-.562 0-.797-.773-.96-1.334a1.807 1.807 0 00-.14-.398v-.023h-.024c-.351-1.077-.843-2.295-1.335-3.489-.397-.96-.749-1.849-.983-2.528a4.541 4.541 0 00-1.053-.117 12.935 12.935 0 00-1.358.093c-.28.024-.539.048-.749.071a30.802 30.802 0 00-1.053 3.324c-.235.82-.469 1.685-.773 2.598a4.935 4.935 0 01-.07.914c-.14.749-.468.913-.726.913a.627.627 0 01-.515-.234zm4.214-8.943c.304-.024.585-.047.89-.047.257 0 .514.023.795.047-.07-.281-.117-.562-.187-.843a17.928 17.928 0 00-.983-3.676 16.1 16.1 0 01-.655 2.271 19.35 19.35 0 00-.656 2.318c.28-.023.538-.047.796-.07zM54.55 101.7a85.767 85.767 0 00-.726 2.786 61.788 61.788 0 01-1.053 3.863c-.234.772-.421 1.569-.632 2.318-.35 1.358-.726 2.785-1.264 4.26a1.604 1.604 0 00-.094.304c-.187.633-.491 1.71-1.31 1.71a.69.69 0 01-.305-.048c-.538-.163-.913-1.38-1.428-3.581-.047-.257-.117-.468-.14-.585-.328-1.1-.633-2.177-.937-3.207-.702-2.506-1.381-4.87-2.177-7.234a1.982 1.982 0 00-.117-.351 4.918 4.918 0 01-.375-1.78v-.163l.14-.048a1.422 1.422 0 01.515-.093c.82 0 1.054.89 1.218 1.569.047.163.094.304.14.421.118.421.281.866.422 1.287.187.469.351.96.491 1.405a440.272 440.272 0 012.552 9.294c.984-2.809 1.78-5.829 2.552-8.78.492-1.919 1.006-3.885 1.569-5.805l.046-.116.118-.024a1.723 1.723 0 01.608-.14.7.7 0 01.586.28c.28.398.046 1.125-.211 1.874-.071.21-.14.42-.188.585zM55.721 99.922a7.49 7.49 0 012.598-.469c.235-.023.492-.047.75-.047a1.748 1.748 0 01.843.164.806.806 0 01.468.702l.023.07-.047.07c-.164.329-.585.329-.772.329a1.133 1.133 0 01-.281-.024h-.14c.046 1.943 0 3.863-.048 5.923-.047 2.762-.117 5.642.047 8.591.117-.022.281-.022.398-.046a3.838 3.838 0 01.492-.047.678.678 0 01.773.562l.022.07-.022.07c-.188.492-.773.515-1.265.539-.164 0-.28.023-.421.023-.211.047-.445.117-.702.187a5.348 5.348 0 01-1.171.211 1.32 1.32 0 01-.983-.375l-.093-.093.022-.14a.608.608 0 01.469-.492 2.782 2.782 0 01.632-.094 2.26 2.26 0 00.421-.023c.024-1.077 0-2.271-.046-3.489a59.924 59.924 0 01.046-6.157 46.554 46.554 0 00.07-5.103 1.539 1.539 0 01-.327.023 6.57 6.57 0 01-.679.048c-.258 0-1.1 0-1.194-.726l-.023-.164zM73.724 116.402l-.024.07-.07.047a1.072 1.072 0 01-.515.14c-.796 0-1.217-.936-1.451-1.428 0-.022-.024-.046-.024-.093a4.546 4.546 0 01-.257-.492c-.282-.562-.609-1.194-.89-1.639-.398-.655-.726-1.334-1.053-1.989a26.555 26.555 0 00-1.03-1.99c-.539-.984-1.148-1.966-1.733-2.927-.842-1.31-1.638-2.785-2.528-4.166-.024 1.428.117 8.755.117 10.698a10.24 10.24 0 010 1.218c-.024.304.023.631 0 .959a3.609 3.609 0 00-.024.515 3.193 3.193 0 01-.093.96.706.706 0 01-.726.585h-.047c-.796-.093-.585-1.521-.585-2.013.07-3.113.047-5.641.047-8.896 0-2.036-.094-4.05-.094-6.344v-.164l.14-.047c.14-.047.164-.093.305-.093a1.594 1.594 0 011.405.819 41.444 41.444 0 012.575 3.886c1.077 1.873 2.411 4.167 3.488 6.344.234.445 1.428 2.762 1.662 3.207-.14-4.776-.679-8.895-.679-13.811v-.118l.07-.07a.506.506 0 01.422-.14 2.239 2.239 0 01.75.14l.116.047.024.14c.14 2.786.28 5.525.374 8.147.093 2.528.093 4.916.328 7.117v.024a3.184 3.184 0 00.047.444 1.546 1.546 0 01-.047.913zM75.831 110.128a11.237 11.237 0 011.522-6.298 9.738 9.738 0 012.552-2.714l.047-.024a6.337 6.337 0 013.558-1.686 2.854 2.854 0 011.241.305.845.845 0 01.632 1.123l-.023.164-.14.023a.96.96 0 01-.259.024 1.431 1.431 0 01-.585-.14 1.187 1.187 0 00-.492-.14 5.777 5.777 0 00-2.668 1.146 5.87 5.87 0 01-.491.328c-2.037 1.71-4.402 5.783-3.348 9.575a5.675 5.675 0 005.431 3.722 5.839 5.839 0 001.78-.258c.608-.187.982-.842 1.193-1.943a19.943 19.943 0 00.164-3.37v-1.358a3.127 3.127 0 00-.492-.024 6.535 6.535 0 00-.678.024c-.211 0-.422.023-.656.023h-.68c-.444 0-.959-.023-1.17-.327a.472.472 0 01-.093-.492c.117-.586.983-.68 1.826-.68h.538a2.392 2.392 0 00.398.024c.164 0 .328-.024.515-.024h.585c.586 0 1.194.047 1.429.492.21.257.117.68.023 1.147a2.613 2.613 0 00-.117.703v.023c-.024.422-.047.866-.047 1.311-.07 1.686-.117 3.441-.772 4.542a3.029 3.029 0 01-1.312 1.287 5.94 5.94 0 01-2.013.328 8.434 8.434 0 01-4.94-1.545 7.112 7.112 0 01-2.458-5.291zM89.691 113.523c-.07-.421-.164-1.17.281-1.569l.07-.046h.07c.048 0 .118-.024.165-.024a.817.817 0 01.819.538 2.508 2.508 0 01.094.843 1.437 1.437 0 00.023.351v.024a3.52 3.52 0 00.89 1.615 4.85 4.85 0 002.692.539h.093a4.428 4.428 0 004.19-2.53 3.766 3.766 0 00-.772-4.143 6.493 6.493 0 00-3.324-1.287 6.896 6.896 0 01-3.09-1.17 4.662 4.662 0 01-1.288-3.441 4.323 4.323 0 011.568-3.044 4.884 4.884 0 015.643-.539c.374.211 1.544.867 1.216 1.78l-.07.187-.187-.047a4.32 4.32 0 01-1.615-.679 2.71 2.71 0 00-1.569-.562 3.849 3.849 0 00-.819.117 3.12 3.12 0 00-1.733 1.265 4.263 4.263 0 00-.842 2.153 2.193 2.193 0 001.428 2.342 5.049 5.049 0 001.545.304 5.993 5.993 0 01.937.117 6.428 6.428 0 014.494 3.51 4.908 4.908 0 01-.375 4.66 4.626 4.626 0 01-2.34 1.802 8.704 8.704 0 01-3.301.632 5.908 5.908 0 01-3.16-.796 4.931 4.931 0 01-1.733-2.902z" fill="#fff"/><path d="M48.374 80.47c-17.282-.301-28.914-1.378-34.046-1.954l-.656 2.065c5.477.46 18.365 1.41 34.89 1.762-.029-.418-.086-1.07-.188-1.873zM76.335 82.279l.634-2.052q-4.22.138-8.191.213c-.09.658-.187 1.319-.3 1.99a603.68 603.68 0 007.857-.151zM61.07 82.478q3.259 0 6.394-.036c.116-.669.216-1.329.307-1.983-6.677.117-12.812.113-18.38.027.099.815.15 1.469.176 1.878 3.675.072 7.523.114 11.503.114zM83.396 79.984q-2.733.117-5.371.207l-.637 2.06q2.718-.075 5.278-.168zM107.793 78.486q-12.37.981-23.324 1.451l-.732 2.106c9.59-.362 17.32-.877 22.149-1.25zM66.782 137.78q-2.826.039-5.712.04-2.667 0-5.288-.034l1.417 4.087q5.756.029 12.1-.109a28.115 28.115 0 01-2.517-3.984zM106.504 135.814a.497.497 0 01-.084-.179c-7.398.69-22.03 1.858-38.526 2.128a28.096 28.096 0 002.628 3.971 455.8 455.8 0 0037.497-2.52 12.344 12.344 0 00-1.515-3.4zM56.14 141.867l-1.419-4.096c-9.694-.149-18.754-.61-26.105-1.108a17.792 17.792 0 01-6.147 3.512c7.762.767 19.262 1.585 33.672 1.692z" fill="#abb833"/><path d="M70.033 82.388c1.061-5.586.639-18.433.101-17.961q-.588.517-1.153 1.088a59.986 59.986 0 01-.504 16.915c.93-.012.645-.026 1.556-.042zM83.829 58.056a7.764 7.764 0 00-1.054.201L74.637 82.32c.862-.019.856-.02 1.698-.041z" fill="#abb833"/><path d="M57.6 156.904c-3.19.991-7.046 3.646-10.813 6.24q-.87.599-1.744 1.196c.521.304 1.308.767 2.259 1.343 4.524-3.124 9.009-6.237 12.475-6.914zM103.053 145.176c-7.803 1.559-15.892 6.88-18.168 8.46.264.156.527.304.79.456a43.002 43.002 0 0117.684-6.738zM102.417 162.634l-8.878 5.516 2.941-.306 6.879-4.868-.942-.342zM101.691 157.872l-1.239-2.499a21.493 21.493 0 00-11.641.439c.954.497 1.89.962 2.795 1.396 3.25-.705 8.323.277 10.085.664zM37.952 168.692l.794 1.651a18.403 18.403 0 006.297-3.21s4.335 2.283 7.848 4.545l1.538-.163c-4.307-3.05-9.142-5.88-10.305-6.553a58.381 58.381 0 01-6.172 3.73zM22.19 155.343l5.515 12.066 2.161.393-6.714-14.655-.962 2.196z" fill="#94a727"/><ellipse cx="61.07" cy="7.919" rx="55.388" ry="6.82" fill="#357fc1"/><path d="M61.07 15.839a339.147 339.147 0 01-39.3-2.006C4.583 11.717 4.583 9.056 4.583 7.919s0-3.797 17.189-5.913A339.157 339.157 0 0161.07 0a339.173 339.173 0 0139.3 2.006c17.188 2.116 17.188 4.776 17.188 5.913s0 3.798-17.188 5.914a339.163 339.163 0 01-39.3 2.006zM6.82 7.919c.326.378 2.589 2.256 16.225 3.852A344.191 344.191 0 0061.07 13.64a344.207 344.207 0 0038.025-1.87c13.637-1.595 15.9-3.473 16.224-3.851-.324-.378-2.588-2.255-16.225-3.85a344.2 344.2 0 00-38.024-1.87 344.2 344.2 0 00-38.024 1.87C9.409 5.663 7.146 7.54 6.821 7.918zm108.55.068zM61.07 39.07c-.472 0-47.213-.075-47.213-6.542v-3.63a.831.831 0 111.663 0v3.63c.675 2.024 18.334 4.88 45.55 4.88s44.874-2.856 45.553-4.904l-.003-3.606a.831.831 0 111.662 0v3.63c0 6.467-46.74 6.542-47.212 6.542zM61.07 180.703a339.148 339.148 0 01-39.3-2.006c-17.188-2.116-17.188-4.777-17.188-5.914 0-1.145 0-4.187 20.955-6.337a1.1 1.1 0 01.224 2.19c-16.054 1.645-18.594 3.745-18.94 4.147.325.378 2.588 2.256 16.224 3.852a344.194 344.194 0 0038.025 1.869 344.21 344.21 0 0038.025-1.87c13.636-1.595 15.9-3.472 16.224-3.85-.317-.37-2.479-2.164-15.242-3.733a1.1 1.1 0 01.268-2.184c17.213 2.117 17.213 4.78 17.213 5.916s0 3.798-17.188 5.914a339.163 339.163 0 01-39.3 2.006zm54.3-7.851z" fill="#3e4147"/><path d="M61.07 33.089a339.375 339.375 0 01-39.3-2.005C4.583 28.968 4.583 26.307 4.583 25.17V7.919a1.1 1.1 0 012.2 0V25.17v-.001c.024 0 1.26 2.097 16.263 3.853A344.44 344.44 0 0061.07 30.89a344.456 344.456 0 0038.025-1.868c15.168-1.776 16.264-3.899 16.274-3.92l-.011-17.183a1.1 1.1 0 012.2 0V25.17c0 1.137 0 3.798-17.188 5.914a339.39 339.39 0 01-39.3 2.005zM5.682 173.883a1.098 1.098 0 01-.75-.295c-5.84-5.442-5.294-54.87-4.325-100.772.156-7.358.279-13.17.279-16.495 0-18.58 12.806-24.55 13.351-24.796a1.1 1.1 0 11.903 2.006c-.49.224-12.054 5.685-12.054 22.79 0 3.348-.123 9.17-.279 16.541-.594 28.096-1.983 93.89 3.625 99.116a1.1 1.1 0 01-.75 1.905zM116.458 173.883a1.1 1.1 0 01-.75-1.904c5.608-5.226 4.218-71.02 3.625-99.116-.156-7.372-.28-13.194-.28-16.542 0-17.105-11.563-22.566-12.055-22.79a1.1 1.1 0 01.904-2.006c.545.246 13.352 6.216 13.352 24.796 0 3.325.123 9.137.278 16.495.97 45.903 1.515 95.33-4.324 100.772a1.098 1.098 0 01-.75.295z" fill="#3e4147"/><path d="M61.07 138.42a503.454 503.454 0 01-50.442-2.7 1.1 1.1 0 01-.964-.943c-.925-6.69-1.103-45.605-.001-54.097a1.092 1.092 0 011.2-.953c.215.021 21.845 2.15 50.207 2.15 28.37 0 50.073-2.129 50.289-2.15a1.092 1.092 0 011.198.942c1.18 8.46 1.431 49.65-.04 54.291a1.099 1.099 0 01-.925.76c-.236.027-23.988 2.7-50.522 2.7zm-49.324-4.792c4.492.477 25.774 2.594 49.324 2.594 23.716 0 45.197-2.147 49.495-2.604 1.01-6.273.976-41.575-.063-51.602-4.727.425-24.531 2.06-49.432 2.06-24.877 0-44.606-1.632-49.341-2.06-.924 9.773-.78 43.407.017 51.612zm99.722.999z" fill="#3e4147"/><path d="M67.89 83.768a.849.849 0 01-.147-.013.832.832 0 01-.671-.966 57.51 57.51 0 00-1.507-27.25 45.396 45.396 0 00-3.968-9.23l-16.42 21.618c4.374 5.272 4.733 14.496 4.746 14.9a.83.83 0 01-.802.857.791.791 0 01-.86-.802c-.003-.097-.378-9.65-4.764-14.35a.831.831 0 01-.055-1.07l17.562-23.12a.772.772 0 01.68-.328.832.832 0 01.665.357c.432.623 10.53 15.524 6.359 38.713a.831.831 0 01-.817.684zM83.024 83.403a.83.83 0 01-.785-1.103l8.318-23.922a.83.83 0 011.434-.246c.106.133 10.756 13.277 22.202 12.496a.844.844 0 01.797.45.831.831 0 01-.098.908l-8.118 9.822a.831.831 0 11-1.282-1.059l6.975-8.438c-9.617-.403-18.032-8.892-20.816-12.018L83.81 82.845a.832.832 0 01-.786.558z" fill="#3e4147"/><path d="M76.706 83.6a.831.831 0 01-.795-1.077L87.388 45.43a.831.831 0 011.385-.338c7.584 7.69 19.592 10.391 19.712 10.418a.83.83 0 01.535 1.24l-6.815 11.304a.831.831 0 11-1.424-.858l6.234-10.34c-3.09-.828-11.884-3.59-18.439-9.643L77.5 83.016a.831.831 0 01-.793.585z" fill="#3e4147"/><path d="M68.478 66.144a.831.831 0 01-.598-1.409c6.706-6.946 16.17-8.076 16.57-8.12a.843.843 0 01.918.733.832.832 0 01-.733.919c-.092.01-9.28 1.118-15.56 7.623a.828.828 0 01-.597.254zM108.308 57.152a.83.83 0 01-.761-.497c-.027-.06-2.525-5.692-5.616-8.513l-2.55 5.08a.831.831 0 11-1.486-.745l3.017-6.01a.83.83 0 011.231-.298c3.797 2.762 6.8 9.531 6.925 9.818a.83.83 0 01-.76 1.165z" fill="#3e4147"/><path d="M99.685 51.594a.826.826 0 01-.416-.113c-.072-.04-7.275-4.195-11.25-4.99a.83.83 0 11.326-1.63c4.244.849 11.452 5.006 11.757 5.183a.83.83 0 01-.417 1.55zM114.25 72.288a.832.832 0 01-.819-.694 25.254 25.254 0 00-7.11-12.352.831.831 0 111.166-1.183 26.428 26.428 0 017.584 13.262.833.833 0 01-.82.967zM13.03 81.784a.831.831 0 01-.792-1.083l8.62-27.127a.832.832 0 01.765-.579c6.758-.193 12.802 4.05 17.665 7.48 2.778 1.96 5.178 3.652 6.997 4.023a.831.831 0 11-.332 1.629c-2.16-.44-4.692-2.227-7.623-4.294-4.513-3.183-10.096-7.12-16.07-7.183l-8.438 26.555a.831.831 0 01-.792.58z" fill="#3e4147"/><path d="M49.7 61.43l-.055-.001c-2.932-.192-5.226-2.17-7.444-4.081-1.763-1.52-3.58-3.086-5.69-3.726l-2.575 4.249a.831.831 0 01-1.422-.861l2.895-4.779a.83.83 0 01.887-.381c2.768.6 4.914 2.45 6.99 4.239 2.104 1.813 4.09 3.526 6.467 3.681a.831.831 0 01-.053 1.66zM18.489 141.371a2.27 2.27 0 01-.844-.124 1.008 1.008 0 01-.652-.929c0-.907 1.62-3.374 2.98-5.284a.83.83 0 011.354.963 41.584 41.584 0 00-2.38 3.705 17.826 17.826 0 008.928-4.164.831.831 0 011.169 1.182 18.537 18.537 0 01-10.555 4.651z" fill="#3e4147"/><path d="M31.463 170.922a.83.83 0 01-.755-.485l-13.64-29.773a.83.83 0 111.512-.691l13.407 29.267c4.022-.289 9.114-3.796 14.046-7.191 5.32-3.665 10.373-7.16 14.37-6.87l-6.11-17.63a.831.831 0 011.57-.544l6.588 19.009a.83.83 0 01-1.073 1.051c-3.368-1.244-8.979 2.619-14.403 6.353-5.357 3.69-10.897 7.504-15.512 7.504z" fill="#3e4147"/><path d="M60.404 176.577a.832.832 0 01-.598-.254c-4.355-4.517-15.995-11.159-16.113-11.225a.831.831 0 11.822-1.446c.465.265 10.974 6.262 15.85 10.886l8.04-9.056a.831.831 0 011.243 1.104l-8.622 9.712a.833.833 0 01-.605.28z" fill="#3e4147"/><path d="M80.364 176.577a.828.828 0 01-.54-.2L57.17 156.974a.83.83 0 111.081-1.262l22.19 19.007 19.946-12.39a99.094 99.094 0 01-13.016-5.746c-7.213-3.849-16.719-10.257-21.037-18.936a.831.831 0 111.488-.74c7.92 15.917 34.476 24.323 34.743 24.406a.831.831 0 01.192 1.5l-21.955 13.64a.828.828 0 01-.439.124z" fill="#3e4147"/><path d="M83.955 154.516a.831.831 0 01-.495-1.5c.606-.448 14.472-10.628 25.31-9.526-.465-2.237-1.413-5.981-2.532-7.476a.831.831 0 111.331-.996c1.855 2.48 3.007 9.039 3.055 9.317a.829.829 0 01-.235.732.838.838 0 01-.736.227c-10.267-1.902-25.055 8.948-25.203 9.059a.827.827 0 01-.495.163z" fill="#3e4147"/><path d="M105.147 157.343a.84.84 0 01-.402-.104 21.479 21.479 0 00-16.897-.732.831.831 0 01-.604-1.549 22.906 22.906 0 0116.868.16l-1.463-10.424a.831.831 0 111.647-.23l1.675 11.932a.832.832 0 01-.824.947zM30.719 169.296a.786.786 0 01-.15-.014l-13.726-2.5a.83.83 0 01-.612-1.151l6.15-14.037a.83.83 0 111.522.666l-5.728 13.075 12.692 2.313a.83.83 0 01-.148 1.648zM39.745 174.403a.831.831 0 01-.749-.47l-2.456-5.108a.831.831 0 011.498-.72l2.202 4.579 15.455-1.637a.821.821 0 01.914.738.83.83 0 01-.74.914l-16.036 1.7a.883.883 0 01-.088.004zM78.57 175.04a.83.83 0 01-.251-.04L65.2 170.853a.83.83 0 11.501-1.584l13.118 4.149a.83.83 0 01-.25 1.623z" fill="#3e4147"/><path d="M91.432 169.701a.83.83 0 01-.085-1.657l14.28-1.483-5.583-11.263a.831.831 0 011.49-.738l6.114 12.335a.83.83 0 01-.658 1.195l-15.471 1.606a.652.652 0 01-.087.005z" fill="#3e4147"/></g></g></svg>
